<?xml version="1.0" encoding="UTF-8"?>
<svg id="_レイヤー_1" data-name="レイヤー 1" xmlns="http://www.w3.org/2000/svg" viewBox="0 0 125.33 149.76">
  <defs>
    <style>
      .cls-1 {
        fill: #c7b595;
      }

      .cls-1, .cls-2 {
        stroke: #604c3f;
        stroke-miterlimit: 10;
      }

      .cls-3 {
        fill: #231815;
      }

      .cls-2 {
        fill: #fff;
      }
    </style>
  </defs>
  <path class="cls-1" d="M123.43,30.12c-3.56-8.56-12.8-12.86-20.64-9.61-2.38.99-4.36,2.57-5.86,4.53-6.21-4.15-13.23-7.21-20.76-8.92.25-.83.4-1.7.44-2.6.26-6.87-6.21-12.69-14.45-13.01s-15.13,5-15.4,11.87c-.05,1.36.17,2.68.61,3.93C18.77,23.12-1.5,48.99.66,78.22c.47,6.34,1.97,12.37,4.32,17.96-3.45,3.06-4.77,8.07-2.9,12.57,1.97,4.74,6.84,7.38,11.69,6.74-.62,1.85-.61,3.93.2,5.88,1.78,4.28,6.68,6.3,10.96,4.53,1.36-.57,2.49-1.45,3.34-2.53,7.01,4.39,15,7.41,23.53,8.73.35,1.65,1.11,3.22,2.26,4.52-2.97,1.64-4.3,5.29-2.97,8.49,1.43,3.44,5.38,5.07,8.82,3.64s5.07-5.38,3.64-8.82c-.02-.06-.06-.11-.08-.17.81-.17,1.6-.43,2.35-.79,3.7,4.31,9.88,5.96,15.41,3.67,3.89-1.62,6.63-4.85,7.75-8.6,1.4.25,2.89.12,4.3-.47,2.09-.87,3.58-2.54,4.29-4.51,2.43,1.99,5.85,2.62,8.95,1.33,4.48-1.86,6.6-7,4.74-11.48-.95-2.29-2.76-3.96-4.9-4.8,11.39-11.68,17.89-27.72,16.62-44.91-.5-6.76-2.17-13.15-4.79-19.04,6.01-4.09,8.37-12.45,5.22-20.02Z"/>
  <ellipse class="cls-2" cx="47.79" cy="74.38" rx="20.58" ry="23.87" transform="translate(-37.17 98.84) rotate(-73.33)"/>
  <ellipse class="cls-3" cx="72.77" cy="65.48" rx="5.42" ry="6.74" transform="translate(-24.7 74.57) rotate(-47.31)"/>
  <ellipse class="cls-3" cx="42.15" cy="60.79" rx="3.41" ry="4.85" transform="translate(-28.18 83.74) rotate(-73.33)"/>
  <ellipse class="cls-3" cx="34.17" cy="52.42" rx="6.33" ry="5.1" transform="translate(-.73 .48) rotate(-.8)"/>
</svg>