<?xml version="1.0" encoding="UTF-8"?>
<svg id="_レイヤー_1" data-name="レイヤー 1" xmlns="http://www.w3.org/2000/svg" xmlns:xlink="http://www.w3.org/1999/xlink" viewBox="0 0 345.81 219.94">
  <defs>
    <style>
      .cls-1 {
        fill: #7fcaca;
        stroke: #6a3906;
      }

      .cls-1, .cls-2, .cls-3, .cls-4 {
        stroke-miterlimit: 10;
      }

      .cls-2 {
        fill: #c7b595;
      }

      .cls-2, .cls-3, .cls-4 {
        stroke: #604c3f;
      }

      .cls-3 {
        fill: url(#_名称未設定グラデーション_10);
      }

      .cls-5 {
        fill: #231815;
      }

      .cls-4 {
        fill: #fff;
      }
    </style>
    <linearGradient id="_名称未設定グラデーション_10" data-name="名称未設定グラデーション 10" x1="33.68" y1="140.03" x2="308.93" y2="140.03" gradientTransform="translate(-28.57 234.91) rotate(-64.66)" gradientUnits="userSpaceOnUse">
      <stop offset="0" stop-color="#fff"/>
      <stop offset="0" stop-color="#f6f5f5"/>
      <stop offset=".04" stop-color="#cac7c7"/>
      <stop offset=".07" stop-color="#a29d9c"/>
      <stop offset=".11" stop-color="#7f7977"/>
      <stop offset=".15" stop-color="#635b59"/>
      <stop offset=".19" stop-color="#4b4240"/>
      <stop offset=".24" stop-color="#392f2c"/>
      <stop offset=".29" stop-color="#2c221f"/>
      <stop offset=".36" stop-color="#251a17"/>
      <stop offset=".49" stop-color="#231815"/>
      <stop offset=".55" stop-color="#362c2a"/>
      <stop offset=".68" stop-color="#6a6260"/>
      <stop offset=".87" stop-color="#bbb8b7"/>
      <stop offset="1" stop-color="#f9f9f9"/>
    </linearGradient>
  </defs>
  <g>
    <path class="cls-2" d="M238.83,39.67c-5.58-12.11-19.09-17.78-30.17-12.67-3.37,1.55-6.12,3.93-8.17,6.82-9.14-5.62-19.4-9.63-30.31-11.67.31-1.21.48-2.47.48-3.76,0-9.88-9.61-17.89-21.46-17.89s-21.46,8.01-21.46,17.89c0,1.96.39,3.85,1.09,5.61-40.7,11.34-68.4,49.62-63.7,91.47,1.02,9.09,3.51,17.66,7.19,25.55-4.79,4.58-6.41,11.86-3.48,18.21,3.09,6.7,10.22,10.22,17.16,9.04-.79,2.7-.66,5.68.61,8.43,2.79,6.05,9.95,8.69,15.99,5.9,1.92-.89,3.5-2.22,4.67-3.81,10.31,5.92,21.95,9.83,34.28,11.24.59,2.35,1.76,4.56,3.49,6.37-4.18,2.52-5.89,7.83-3.8,12.36,2.24,4.87,8.01,6.99,12.87,4.75,4.87-2.24,6.99-8.01,4.75-12.87-.04-.08-.09-.16-.13-.24,1.16-.28,2.28-.7,3.34-1.27,5.55,5.98,14.52,8.02,22.34,4.42,5.5-2.54,9.25-7.33,10.66-12.77,2.03.28,4.15.01,6.15-.91,2.95-1.36,5-3.85,5.92-6.72,3.6,2.73,8.54,3.44,12.93,1.42,6.33-2.92,9.1-10.42,6.18-16.75-1.49-3.24-4.18-5.53-7.3-6.63,15.72-17.4,24.17-40.79,21.41-65.42-1.09-9.68-3.84-18.77-7.92-27.08,8.41-6.2,11.34-18.34,6.4-29.05Z"/>
    <ellipse class="cls-4" cx="132.61" cy="107.39" rx="29.59" ry="34.31" transform="translate(-4.53 208.93) rotate(-75.52)"/>
    <ellipse class="cls-5" cx="168" cy="93.24" rx="7.79" ry="9.68" transform="translate(-12.02 160.4) rotate(-49.49)"/>
    <ellipse class="cls-5" cx="123.76" cy="88.18" rx="4.91" ry="6.98" transform="translate(7.43 185.95) rotate(-75.52)"/>
    <ellipse class="cls-5" cx="111.84" cy="76.59" rx="9.11" ry="7.32" transform="translate(-3.84 5.93) rotate(-2.99)"/>
  </g>
  <g>
    <path class="cls-3" d="M42.89,207.55S338.77,71.18,342.46,69.58s2.75,6.56,2.75,6.56L44.81,212.77s-31.1,19.29-42.7-7.73,43.14,2.67,40.77,2.51Z"/>
    <path class="cls-1" d="M35.97,208.97s-22.87-15.05-30.47-10.34,27.49,17.58,30.47,10.34Z"/>
  </g>
</svg>